<?xml version="1.0" encoding="UTF-8"?>
<svg id="Layer_13" data-name="Layer 13" xmlns="http://www.w3.org/2000/svg" xmlns:xlink="http://www.w3.org/1999/xlink" viewBox="0 0 512 512">
  <defs>
    <style>
      .cls-1 {
        fill: url(#linear-gradient);
      }

      .cls-1, .cls-2, .cls-3, .cls-4, .cls-5 {
        stroke-width: 0px;
      }

      .cls-2 {
        fill: url(#radial-gradient);
      }

      .cls-3 {
        fill: url(#linear-gradient-2);
      }

      .cls-4 {
        fill: url(#linear-gradient-3);
      }

      .cls-5 {
        fill: #fff1eb;
      }
    </style>
    <radialGradient id="radial-gradient" cx="256" cy="-7214.62" fx="256" fy="-7214.62" r="200.83" gradientTransform="translate(0 3678.94) scale(1 .45)" gradientUnits="userSpaceOnUse">
      <stop offset="0" stop-color="#fe7737" stop-opacity=".6"/>
      <stop offset="1" stop-color="#fe7837" stop-opacity="0"/>
    </radialGradient>
    <linearGradient id="linear-gradient" x1="371.77" y1="405.29" x2="140.23" y2="173.75" gradientUnits="userSpaceOnUse">
      <stop offset="0" stop-color="#fe7838"/>
      <stop offset=".54" stop-color="#fe7636"/>
      <stop offset="1" stop-color="#ffad8a"/>
    </linearGradient>
    <linearGradient id="linear-gradient-2" x1="313.02" y1="293.64" x2="134.28" y2="114.9" gradientUnits="userSpaceOnUse">
      <stop offset="0" stop-color="#ef3739"/>
      <stop offset=".54" stop-color="#ef3739"/>
      <stop offset="1" stop-color="#ff8c8b"/>
    </linearGradient>
    <linearGradient id="linear-gradient-3" x1="304.32" y1="424.73" x2="207.25" y2="327.66" gradientUnits="userSpaceOnUse">
      <stop offset="0" stop-color="#ffddce"/>
      <stop offset=".57" stop-color="#fff"/>
      <stop offset="1" stop-color="#fff"/>
    </linearGradient>
  </defs>
  <path class="cls-5" d="m496.52,129.86c-13.43-49.48-64.89-100.93-114.37-114.37C351.81,7.92,311.17.13,256,0c-55.17.14-95.81,7.92-126.15,15.49C80.38,28.93,28.92,80.38,15.48,129.86,7.92,160.19.13,200.84,0,256c.14,55.17,7.92,95.81,15.49,126.15,13.44,49.48,64.89,100.93,114.37,114.37,30.34,7.57,70.98,15.35,126.15,15.49,55.16-.14,95.81-7.92,126.15-15.49,49.48-13.44,100.93-64.89,114.37-114.37,7.57-30.33,15.35-70.98,15.49-126.15-.14-55.17-7.92-95.81-15.49-126.15Z"/>
  <path class="cls-2" d="m444.68,366.22c-10.54-17.58-50.91-35.87-89.72-40.64-23.8-2.69-55.68-5.46-98.96-5.5-43.28.05-75.17,2.81-98.96,5.5-38.81,4.78-79.18,23.06-89.72,40.64-5.94,10.78-12.04,25.22-12.15,44.83.11,19.6,6.21,34.05,12.15,44.83,10.54,17.58,50.91,35.87,89.72,40.64,23.8,2.69,55.69,5.46,98.96,5.5,43.28-.05,75.16-2.82,98.96-5.5,38.82-4.77,79.18-23.06,89.72-40.64,5.93-10.78,12.04-25.22,12.15-44.83-.11-19.6-6.22-34.05-12.15-44.83Z"/>
  <g id="HOME">
    <path class="cls-1" d="m256.02,86c.08,0-.08,0,0,0,14.9.02,29.92,5.69,42.42,16.78,15.04,13.33,35.24,32.64,62.25,59.94,17.08,17.25,30.98,31.72,42.18,43.84,0,0,0,0,0,0,6.51,7.04,12.12,13.3,16.94,18.85.93,1.07,1.82,2.16,2.67,3.27,8.58,11.07.34,26.47-13.77,26.51,0,0-2.48,0-4.95-1.12.09,6.14.11,13.7.04,20.5-.05,5.57-.16,10.91-.31,16.04,0,0,0,0,0,0-.84,28.51-2.95,50.28-5.25,66.9-4.7,32.51-32.06,60.53-63.67,65.11-8.91,1.25-19.34,2.4-31.55,3.3,0,0-23.1.09-47.01.09h-.04c-23.91,0-47.01-.09-47.01-.09-12.21-.89-22.64-2.05-31.55-3.3-31.61-4.58-58.97-32.6-63.67-65.11-2.31-16.62-4.42-38.4-5.25-66.9,0,0,0,0,0,0-.15-5.13-.25-10.47-.31-16.04-.06-6.8-.04-14.36.04-20.5-2.46,1.12-4.95,1.12-4.95,1.12-14.11-.04-22.34-15.44-13.77-26.51.85-1.11,1.74-2.2,2.67-3.27,4.82-5.56,10.43-11.81,16.94-18.85,0,0,0,0,0,0,11.2-12.12,25.1-26.59,42.18-43.84,27.01-27.3,47.21-46.62,62.25-59.94,12.5-11.09,27.52-16.76,42.42-16.78.08,0-.08,0,0,0h.04Z"/>
    <path class="cls-3" d="m256,86c.08,0-.08,0,0,0,14.9.02,30.05,5.69,42.55,16.78,15.04,13.33,35.24,32.64,62.25,59.94,17.08,17.25,30.98,31.72,42.18,43.84,0,0,0,0,0,0,6.51,7.04,12.12,13.3,16.94,18.85.93,1.07,1.82,2.16,2.67,3.27,8.58,11.07.34,26.47-13.77,26.51-.02,0-.03,0-.05,0-3.11,0-6.1-1.22-8.34-3.4l-128.61-125.3c-8.81-8.59-22.84-8.59-31.66,0l-128.61,125.3c-2.23,2.18-5.22,3.39-8.34,3.4-.02,0-.03,0-.05,0-14.11-.04-22.34-15.44-13.77-26.51.85-1.11,1.74-2.2,2.67-3.27,4.82-5.56,10.43-11.81,16.94-18.85,0,0,0,0,0,0,11.2-12.12,25.1-26.59,42.18-43.84,27.01-27.3,47.21-46.62,62.25-59.94,12.5-11.09,27.65-16.76,42.55-16.78.08,0-.08,0,0,0Z"/>
    <path class="cls-4" d="m293.54,316.89c-5.59-5.64-13.07-9.2-21.02-10.01-.08,0-.16-.02-.25-.02-9.7-.99-14.99-.55-14.99-.55,0,0-8.3-.45-18,.55-.08,0-.16.02-.24.02-7.95.81-15.42,4.37-21.02,10.02-5.6,5.64-9.07,13.13-9.79,21.11-1.09,11.73-1.07,47.44-.59,65.6.15,6.28.42,14.48.77,22.28.19.01.37.03.55.04,0,0,23.1.09,47.01.09h.04c23.91,0,47.01-.09,47.01-.09.03,0,.07,0,.1,0,.36-7.82.62-16.03.78-22.32.48-18.16.5-53.87-.59-65.6-.72-7.98-4.19-15.46-9.79-21.11Z"/>
  </g>
</svg>